<svg width="19" height="17" viewBox="0 0 19 17" fill="none" xmlns="http://www.w3.org/2000/svg">
<path d="M2.25996 5.47786C1.39599 3.99026 0.964139 3.24566 1.02866 2.63527C1.08495 2.10289 1.36602 1.61961 1.80165 1.30502C2.30093 0.944337 3.16435 0.944338 4.8911 0.944338H14.1089C15.8356 0.944338 16.6989 0.944337 17.1982 1.30502C17.6338 1.61961 17.915 2.10289 17.9713 2.63527C18.0358 3.24566 17.6042 3.99026 16.7401 5.47786L12.1329 13.4112C11.269 14.8989 10.8367 15.6426 10.2728 15.8922C9.78091 16.11 9.2188 16.11 8.72687 15.8922C8.16313 15.6427 7.73123 14.899 6.86798 13.4126L2.25996 5.47786Z" fill="#FF0000" stroke="#FF0000" stroke-width="2" stroke-linecap="round" stroke-linejoin="round"/>
</svg>
