<svg width="25" height="24" viewBox="0 0 25 24" fill="none" xmlns="http://www.w3.org/2000/svg">
<path id="Vector" d="M15.1628 9.55556V18.1111M9.66284 9.55556V18.1111M4.16284 4.66667V19.0889C4.16284 20.4579 4.16284 21.1419 4.46257 21.6648C4.72623 22.1248 5.14662 22.4995 5.66406 22.7338C6.25174 23 7.02146 23 8.55859 23H16.2671C17.8042 23 18.5728 23 19.1605 22.7338C19.678 22.4995 20.0998 22.1248 20.3634 21.6648C20.6628 21.1425 20.6628 20.459 20.6628 19.0927V4.66667M4.16284 4.66667H6.91284M4.16284 4.66667H1.41284M6.91284 4.66667H17.9128M6.91284 4.66667C6.91284 3.5277 6.91284 2.9585 7.12217 2.50928C7.40128 1.91032 7.93628 1.43417 8.61011 1.18607C9.11548 1 9.7565 1 11.0378 1H13.7878C15.0692 1 15.7099 1 16.2152 1.18607C16.889 1.43417 17.4243 1.91032 17.7034 2.50928C17.9127 2.95849 17.9128 3.5277 17.9128 4.66667M17.9128 4.66667H20.6628M20.6628 4.66667H23.4128" stroke="#EF0009" stroke-width="2" stroke-linecap="round" stroke-linejoin="round"/>
</svg>
