<svg width="45" height="45" viewBox="0 0 45 45" fill="none" xmlns="http://www.w3.org/2000/svg">
<g id="Edit / Edit_Pencil_01">
<path id="Vector" d="M22.5 15.0002L7.5 30.0002V37.5002L15 37.5002L30 22.5002M22.5 15.0002L27.8787 9.62149L27.8819 9.6183C28.6223 8.8779 28.9932 8.50704 29.4207 8.36814C29.7973 8.24578 30.2029 8.24578 30.5795 8.36814C31.0067 8.50694 31.3772 8.87738 32.1165 9.61673L35.3786 12.8789C36.1212 13.6214 36.4926 13.9928 36.6317 14.4209C36.7541 14.7975 36.754 15.2032 36.6317 15.5797C36.4927 16.0076 36.1218 16.3784 35.3803 17.1199L35.3787 17.1215L30 22.5002M22.5 15.0002L30 22.5002" stroke="black" stroke-width="4" stroke-linecap="round" stroke-linejoin="round"/>
</g>
</svg>
