<svg width="127" height="71" viewBox="0 0 127 71" fill="none" xmlns="http://www.w3.org/2000/svg">
<g clip-path="url(#clip0_1_5)">
<path d="M22.5599 16.0745L2.42004 50.556L12.49 63.4748L32.7756 64.8029L39.0767 59.1053L44.6122 53.4048L22.5599 16.0745Z" fill="#ED1C24"/>
<path d="M22.5375 35.4052L6.57027 62.8554L38.6953 63.3297L22.5375 35.4052Z" fill="#F7931E"/>
<path d="M43.6364 0H34.0207V45.7596C34.0588 46.6759 34.027 47.5938 33.9254 48.5052C33.4374 54.4847 29.2788 59.3871 23.0394 59.3871C16.8 59.3871 12.6386 54.4958 12.1507 48.5052C12.0528 47.5935 12.0219 46.6759 12.0581 45.7596V0H0V49.0158C0.0218819 50.186 0.15806 51.3513 0.406611 52.4952C2.53501 62.5094 10.5382 70.9944 23.0366 71C35.535 71.0056 43.4288 62.4842 45.6666 52.4952C45.9106 51.3506 46.0458 50.1857 46.0704 49.0158V0H43.6364Z" fill="white"/>
<path d="M62.3292 40.101C62.3287 39.645 62.4975 39.2048 62.8032 38.865L76.7064 23.3681C77.4715 22.4864 78.1035 21.4985 78.5825 20.4356C79.0001 19.5468 79.2283 18.5816 79.2527 17.6007V17.5505C79.2527 16.1386 78.7853 15.0439 77.8506 14.2664C76.9196 13.4879 75.5147 13.3344 73.7985 13.3344C72.172 13.3344 70.941 13.5242 69.9371 14.3752C68.9332 15.2262 68.3218 16.4316 68.1031 17.9885V18.0136H62.3292V17.9885C62.5926 16.1264 63.2814 14.3491 64.3427 12.7931C65.3368 11.372 66.6913 10.238 68.2686 9.50626C70.0153 8.72115 71.9158 8.33321 73.8321 8.37064C76.2082 8.37064 78.2375 8.73337 79.9201 9.45882C81.4939 10.0929 82.8333 11.1937 83.7562 12.6118C84.6311 13.9901 85.0686 15.6531 85.0686 17.6007V17.6258C85.0447 18.9733 84.7471 20.302 84.1937 21.5321C83.5723 22.9541 82.7519 24.2814 81.7568 25.4747L72.674 36.4096C72.5554 36.5526 72.4799 36.7261 72.4563 36.9101C72.4326 37.094 72.4618 37.2808 72.5404 37.449C72.619 37.6171 72.7439 37.7596 72.9005 37.8601C73.0571 37.9606 73.2392 38.0149 73.4255 38.0167H83.0468C83.3059 38.0175 83.5543 38.1198 83.738 38.3016C83.9217 38.4834 84.026 38.7299 84.0282 38.9877L84.0703 42.1016C84.0725 42.2428 84.0466 42.3829 83.9939 42.514C83.9413 42.6451 83.8629 42.7645 83.7636 42.8652C83.6642 42.9659 83.5456 43.046 83.4149 43.1007C83.2842 43.1555 83.1438 43.1839 83.0019 43.1842H63.0359C62.9427 43.1839 62.8506 43.1653 62.7646 43.1294C62.6787 43.0936 62.6007 43.0413 62.5351 42.9755C62.4694 42.9097 62.4175 42.8317 62.3822 42.7459C62.3469 42.6601 62.3289 42.5682 62.3292 42.4755V40.101Z" fill="white"/>
<path d="M114.131 15.5555C113.584 14.083 112.691 12.762 111.526 11.7022C110.25 10.5812 108.748 9.74325 107.121 9.24398C105.087 8.62726 102.968 8.33255 100.842 8.37064H90.0152C89.8744 8.37138 89.7396 8.42756 89.6403 8.5269C89.541 8.62624 89.4852 8.76067 89.4852 8.90079V42.6625C89.4852 42.8023 89.5411 42.9365 89.6405 43.0354C89.7399 43.1343 89.8747 43.1898 90.0152 43.1898H94.4347C94.5755 43.1898 94.7106 43.1344 94.8104 43.0355C94.9103 42.9367 94.9667 42.8026 94.9675 42.6625V33.8119H94.931V27.8324H94.9675V14.7184C94.9675 14.5778 95.0236 14.443 95.1235 14.3435C95.2234 14.2441 95.359 14.1883 95.5003 14.1883L100.983 14.2106C103.913 14.2106 104.275 13.9985 105.893 14.8216C107.682 15.7117 108.803 17.4835 108.803 20.0031C108.803 21.2001 108.91 22.3636 108.54 23.3513C108.17 24.3391 108.001 24.9418 107.27 25.6617C106.536 26.4213 105.644 27.011 104.656 27.3888C103.571 27.7878 101.619 27.7097 100.032 27.7097C99.9235 27.7096 99.8176 27.7424 99.7284 27.8037C99.6392 27.865 99.571 27.9519 99.5327 28.0529L97.7913 32.7125C97.7608 32.7927 97.7503 32.879 97.7609 32.964C97.7714 33.049 97.8026 33.1302 97.8517 33.2006C97.9009 33.2709 97.9665 33.3283 98.043 33.3677C98.1194 33.4071 98.2044 33.4274 98.2905 33.4268H100.862C103.012 33.3829 105.14 32.985 107.16 32.2494C108.918 31.6411 110.192 30.6785 111.386 29.5708C112.572 28.4726 113.499 27.126 114.098 25.6282C114.724 24.0279 115.035 22.3229 115.015 20.6058C115.031 18.883 114.731 17.1717 114.131 15.5555Z" fill="white"/>
<path d="M53.6642 60.7599C52.8123 60.7632 51.9637 60.6544 51.1404 60.4362C50.4512 60.2686 49.7939 59.9906 49.1943 59.6131L50.1786 57.3977C50.6909 57.7178 51.2434 57.9692 51.8219 58.1454C52.4209 58.3374 53.0461 58.4362 53.6754 58.4384C54.0142 58.4476 54.3528 58.4119 54.6822 58.3324C54.8945 58.288 55.0893 58.1833 55.243 58.031C55.3577 57.9029 55.4197 57.7366 55.4169 57.5651C55.4186 57.4504 55.3883 57.3376 55.3294 57.2391C55.2705 57.1405 55.1852 57.0602 55.0832 57.007C54.8108 56.8504 54.517 56.7339 54.211 56.661C53.8549 56.5634 53.4651 56.4741 53.0473 56.382C52.614 56.2939 52.1861 56.1812 51.7658 56.0444C51.3493 55.9108 50.9524 55.7231 50.5852 55.4864C50.2378 55.2544 49.9497 54.9448 49.7439 54.5823C49.5144 54.1537 49.4022 53.6726 49.4186 53.1872C49.4131 52.5809 49.5931 51.9873 49.9346 51.4852C50.3241 50.9326 50.8654 50.5034 51.4938 50.2491C52.3193 49.9121 53.207 49.7524 54.0989 49.7804C54.789 49.7798 55.4768 49.8584 56.1488 50.0147C56.7756 50.1535 57.3766 50.3899 57.9294 50.7151L57.0209 52.9166C56.549 52.648 56.0449 52.4399 55.5206 52.2971C55.0517 52.1698 54.5681 52.1041 54.082 52.1018C53.7439 52.0905 53.4063 52.1367 53.0838 52.2385C52.8674 52.2982 52.6728 52.4183 52.5229 52.5845C52.4175 52.712 52.3591 52.8715 52.3575 53.0365C52.357 53.1509 52.3878 53.2633 52.4466 53.3616C52.5054 53.4599 52.5899 53.5404 52.6912 53.5946C52.9596 53.75 53.2511 53.8621 53.5549 53.9266C53.9082 54.0131 54.298 54.0996 54.727 54.2056C55.1587 54.2966 55.5855 54.4092 56.0057 54.5433C56.4184 54.6746 56.8131 54.8564 57.1807 55.0846C57.5368 55.309 57.8347 55.614 58.05 55.9746C58.2867 56.3947 58.4022 56.8717 58.3837 57.353C58.3861 57.9579 58.2042 58.5494 57.8621 59.0495C57.4685 59.6029 56.9249 60.0335 56.2946 60.2911C55.4609 60.6304 54.5644 60.7901 53.6642 60.7599Z" fill="white"/>
<path d="M61.0365 51.4768C60.5699 51.5001 60.1122 51.3443 59.7578 51.0415C59.6045 50.9054 59.4825 50.738 59.4003 50.5506C59.318 50.3633 59.2773 50.1605 59.2811 49.9561C59.2769 49.7529 59.3174 49.5512 59.3997 49.3652C59.482 49.1791 59.6043 49.0132 59.7578 48.8791C60.1136 48.5793 60.5709 48.4257 61.0365 48.4494C61.4965 48.4265 61.9492 48.5714 62.3096 48.8568C62.4649 48.9814 62.5893 49.1397 62.6734 49.3196C62.7575 49.4996 62.799 49.6963 62.7947 49.8947C62.7998 50.1059 62.76 50.3157 62.6778 50.5105C62.5957 50.7052 62.473 50.8805 62.318 51.0248C61.9674 51.3377 61.5069 51.5001 61.0365 51.4768ZM59.5979 60.5478V52.3669H62.4751V60.5478H59.5979Z" fill="white"/>
<path d="M75.0295 52.2302C75.6217 52.22 76.2073 52.3551 76.7345 52.6236C77.2408 52.8905 77.6528 53.3053 77.9151 53.8122C78.2263 54.4551 78.3746 55.164 78.3469 55.877V60.5478H75.4698V56.343C75.5067 55.8935 75.389 55.4448 75.1361 55.0706C75.0256 54.9392 74.8862 54.8348 74.7286 54.7656C74.571 54.6964 74.3996 54.6643 74.2275 54.6716C73.9637 54.6662 73.7035 54.7338 73.476 54.8669C73.2499 55.0094 73.0736 55.218 72.9712 55.464C72.8362 55.7959 72.7741 56.1527 72.789 56.5104V60.5478H69.9118V56.343C69.9481 55.8947 69.8337 55.4471 69.5865 55.0706C69.4752 54.938 69.3344 54.833 69.1753 54.7637C69.0161 54.6945 68.843 54.6629 68.6696 54.6716C68.4086 54.6683 68.1517 54.7358 67.9264 54.8669C67.6954 55.0084 67.5134 55.2167 67.4049 55.464C67.2665 55.7951 67.2024 56.1521 67.217 56.5104V60.5478H64.3399V52.3669H67.0936V54.6577L66.5496 54.0075C66.8157 53.4538 67.2425 52.9921 67.775 52.6822C68.3102 52.3783 68.9172 52.2223 69.5333 52.2302C70.2297 52.2105 70.9153 52.4054 71.4962 52.7882C72.0843 53.2129 72.4859 53.8462 72.6179 54.5572L71.6785 54.3479C71.9576 53.7115 72.4189 53.171 73.0049 52.7938C73.6099 52.4131 74.3138 52.2171 75.0295 52.2302Z" fill="white"/>
<path d="M83.616 60.6845C82.9951 60.6947 82.3804 60.56 81.8213 60.2911C81.2852 60.0256 80.8495 59.595 80.5791 59.0634C80.2583 58.3995 80.1052 57.6678 80.1332 56.9317V52.3669H83.0047V56.4657C83.0047 57.0963 83.1234 57.5502 83.3608 57.8273C83.4862 57.9677 83.6419 58.0781 83.8163 58.1501C83.9906 58.2221 84.1791 58.2539 84.3675 58.2431C84.6398 58.2446 84.9081 58.1774 85.1471 58.0478C85.3972 57.9054 85.594 57.6861 85.708 57.4228C85.8505 57.0761 85.9174 56.7033 85.9043 56.329V52.3669H88.7814V60.5478H86.0557V58.2431L86.5857 58.8904C86.3266 59.4573 85.895 59.9288 85.3518 60.2381C84.8227 60.5362 84.224 60.6902 83.616 60.6845Z" fill="white"/>
<path d="M90.6406 60.5478V49.3674H93.5177V60.5478H90.6406Z" fill="white"/>
<path d="M97.9708 60.6845C97.4002 60.7 96.8336 60.5865 96.3135 60.3525C95.8837 60.159 95.5202 59.8448 95.2675 59.4484C95.0302 59.0685 94.9066 58.629 94.9114 58.1817C94.9009 57.7152 95.0361 57.257 95.2984 56.8703C95.5999 56.4749 96.0173 56.1824 96.493 56.0332C97.1601 55.8191 97.859 55.72 98.5597 55.7402H100.5V57.2469H98.9551C98.6156 57.2157 98.2747 57.2898 97.9792 57.459C97.8864 57.5289 97.8122 57.6204 97.7633 57.7255C97.7144 57.8306 97.6922 57.9461 97.6988 58.0617C97.6961 58.1756 97.7201 58.2885 97.7688 58.3917C97.8174 58.4948 97.8895 58.5853 97.9792 58.656C98.2064 58.8232 98.4851 58.9061 98.7672 58.8904C99.0742 58.8947 99.3763 58.8135 99.6393 58.656C99.9065 58.4915 100.105 58.237 100.2 57.9389L100.593 58.9936C100.471 59.5153 100.154 59.9712 99.7066 60.2688C99.1807 60.5718 98.5777 60.7162 97.9708 60.6845ZM100.391 60.5478V59.0271L100.195 58.6504V55.8602C100.206 55.666 100.175 55.4716 100.103 55.2908C100.03 55.11 99.9191 54.9472 99.7767 54.8139C99.4982 54.5683 99.057 54.4456 98.4531 54.4456C98.0434 54.4477 97.6365 54.5136 97.2473 54.6409C96.8781 54.753 96.5282 54.9205 96.2097 55.1375L95.2563 53.2095C95.7754 52.885 96.3434 52.6458 96.9388 52.5008C97.5737 52.3321 98.2278 52.2458 98.885 52.2441C100.218 52.2441 101.246 52.551 101.97 53.1648C102.693 53.7787 103.059 54.733 103.069 56.0276V60.5478H100.391Z" fill="white"/>
<path d="M104.036 54.8223V52.6822H109.987V54.8223H104.036ZM108.562 60.6817C107.514 60.6817 106.695 60.4222 106.111 59.906C105.528 59.3898 105.231 58.6058 105.231 57.5623V50.5421H108.108V57.5176C108.099 57.6449 108.115 57.7728 108.155 57.8939C108.196 58.015 108.26 58.127 108.344 58.2235C108.426 58.3049 108.524 58.3685 108.632 58.4102C108.74 58.452 108.856 58.4711 108.972 58.4663C109.284 58.4721 109.59 58.3825 109.849 58.2096L110.579 60.199C110.298 60.3762 109.987 60.501 109.662 60.5673C109.298 60.646 108.926 60.6853 108.554 60.6845L108.562 60.6817Z" fill="white"/>
<path d="M115.534 60.6845C114.702 60.6963 113.881 60.5047 113.142 60.1265C112.466 59.7867 111.897 59.2683 111.498 58.6281C111.105 57.9664 110.898 57.2119 110.898 56.4434C110.898 55.6748 111.105 54.9203 111.498 54.2586C111.897 53.6184 112.466 53.1 113.142 52.7603C113.882 52.3869 114.704 52.2 115.534 52.2162C116.366 52.2014 117.19 52.3881 117.934 52.7603C118.621 53.101 119.196 53.6288 119.594 54.2824C119.991 54.9359 120.193 55.6882 120.177 56.4517C120.189 57.2191 119.981 57.974 119.577 58.6281C119.177 59.2692 118.606 59.7877 117.928 60.1265C117.187 60.5026 116.365 60.6941 115.534 60.6845ZM115.534 58.4077C115.839 58.4121 116.139 58.334 116.403 58.1817C116.67 58.0215 116.886 57.7893 117.025 57.512C117.188 57.1815 117.268 56.8168 117.258 56.4489C117.27 56.0835 117.19 55.7209 117.025 55.3942C116.883 55.1229 116.669 54.8955 116.406 54.7368C116.143 54.5781 115.841 54.4942 115.534 54.4942C115.226 54.4942 114.924 54.5781 114.661 54.7368C114.398 54.8955 114.184 55.1229 114.042 55.3942C113.874 55.7201 113.793 56.0832 113.806 56.4489C113.796 56.8171 113.877 57.1822 114.042 57.512C114.18 57.7891 114.395 58.0213 114.661 58.1817C114.926 58.3345 115.228 58.4126 115.534 58.4077Z" fill="white"/>
<path d="M121.501 60.5478V52.3669H124.257V54.7609L123.834 54.0828C124.058 53.4962 124.478 53.0039 125.023 52.6877C125.628 52.3588 126.311 52.1969 127 52.219V54.8111C126.884 54.7923 126.767 54.7802 126.649 54.7748H126.347C125.83 54.7502 125.322 54.9195 124.925 55.2492C124.56 55.5644 124.378 56.0862 124.378 56.7921V60.5478H121.501Z" fill="white"/>
</g>
<defs>
<clipPath id="clip0_1_5">
<rect width="127" height="71" fill="white"/>
</clipPath>
</defs>
</svg>
