<svg width="19" height="17" viewBox="0 0 19 17" fill="none" xmlns="http://www.w3.org/2000/svg">
<path d="M2.25996 11.522C1.396 13.0096 0.964146 13.7542 1.02867 14.3646C1.08496 14.897 1.36602 15.3803 1.80166 15.6949C2.30094 16.0556 3.16436 16.0556 4.8911 16.0556H14.1089C15.8356 16.0556 16.6989 16.0556 17.1982 15.6949C17.6338 15.3803 17.915 14.897 17.9713 14.3646C18.0358 13.7542 17.6042 13.0096 16.7401 11.522L12.1329 3.58866C11.269 2.10099 10.8367 1.35728 10.2728 1.10765C9.78092 0.889917 9.21881 0.889917 8.72688 1.10765C8.16314 1.35718 7.73123 2.1009 6.86799 3.58733L2.25996 11.522Z" fill="#39DB00" stroke="#39DB00" stroke-width="2" stroke-linecap="round" stroke-linejoin="round"/>
</svg>
