<svg width="48" height="48" viewBox="0 0 48 48" fill="none" xmlns="http://www.w3.org/2000/svg">
<g id="Warning / Circle_Help">
<path id="Vector" d="M18.293 18.1472C18.6346 17.0946 19.2603 16.1579 20.1016 15.439C20.9428 14.72 21.9676 14.2476 23.0605 14.0742C24.1535 13.9008 25.2724 14.0328 26.2949 14.4561C27.3174 14.8793 28.2029 15.5775 28.8535 16.4727C29.5041 17.3678 29.8938 18.4251 29.9807 19.5283C30.0677 20.6315 29.8477 21.7376 29.3454 22.7236C28.8431 23.7097 28.0787 24.537 27.1352 25.1152C26.1917 25.6935 25.1066 25.9995 24 25.9995V28.0005M24 42C14.0589 42 6 33.9411 6 24C6 14.0589 14.0589 6 24 6C33.9411 6 42 14.0589 42 24C42 33.9411 33.9411 42 24 42ZM24.0996 34V34.2L23.9004 34.2004V34H24.0996Z" stroke="white" stroke-width="4" stroke-linecap="round" stroke-linejoin="round"/>
</g>
</svg>
