<svg width="45" height="46" viewBox="0 0 45 46" fill="none" xmlns="http://www.w3.org/2000/svg">
<g id="Navigation / House_01">
<path id="Vector" d="M37.5 32.3753V21.9729C37.5 20.971 37.4991 20.4698 37.3773 20.0036C37.2694 19.5904 37.0921 19.1994 36.8523 18.8461C36.5817 18.4475 36.2054 18.1169 35.4514 17.4571L26.4514 9.58211C25.0515 8.3572 24.3516 7.74506 23.5638 7.5121C22.8697 7.30684 22.1299 7.30684 21.4358 7.5121C20.6486 7.74488 19.9497 8.35645 18.5519 9.57951L9.54895 17.4571C8.79495 18.1169 8.41883 18.4475 8.14819 18.8461C7.90836 19.1994 7.72978 19.5904 7.62182 20.0036C7.5 20.4698 7.5 20.971 7.5 21.9729V32.3752C7.5 34.1225 7.5 34.9958 7.78545 35.685C8.16605 36.6038 8.8956 37.3348 9.81445 37.7154C10.5036 38.0008 11.3772 38.0008 13.1245 38.0008C14.8718 38.0008 15.7464 38.0008 16.4355 37.7154C17.3544 37.3348 18.0838 36.604 18.4644 35.6851C18.7498 34.996 18.75 34.1224 18.75 32.3751V30.5001C18.75 28.429 20.4289 26.7501 22.5 26.7501C24.5711 26.7501 26.25 28.429 26.25 30.5001V32.3751C26.25 34.1224 26.25 34.996 26.5355 35.6851C26.9161 36.604 27.6456 37.3348 28.5645 37.7154C29.2536 38.0008 30.1272 38.0008 31.8745 38.0008C33.6218 38.0008 34.4964 38.0008 35.1855 37.7154C36.1044 37.3348 36.8338 36.6038 37.2144 35.685C37.4998 34.9958 37.5 34.1225 37.5 32.3753Z" stroke="white" stroke-width="4" stroke-linecap="round" stroke-linejoin="round"/>
</g>
</svg>
