<svg width="45" height="46" viewBox="0 0 45 46" fill="none" xmlns="http://www.w3.org/2000/svg">
<g id="Menu / More_Horizontal">
<g id="Vector">
<path d="M31.875 23C31.875 24.0355 32.7145 24.875 33.75 24.875C34.7855 24.875 35.625 24.0355 35.625 23C35.625 21.9645 34.7855 21.125 33.75 21.125C32.7145 21.125 31.875 21.9645 31.875 23Z" stroke="white" stroke-width="4" stroke-linecap="round" stroke-linejoin="round"/>
<path d="M20.625 23C20.625 24.0355 21.4645 24.875 22.5 24.875C23.5355 24.875 24.375 24.0355 24.375 23C24.375 21.9645 23.5355 21.125 22.5 21.125C21.4645 21.125 20.625 21.9645 20.625 23Z" stroke="white" stroke-width="4" stroke-linecap="round" stroke-linejoin="round"/>
<path d="M9.375 23C9.375 24.0355 10.2145 24.875 11.25 24.875C12.2855 24.875 13.125 24.0355 13.125 23C13.125 21.9645 12.2855 21.125 11.25 21.125C10.2145 21.125 9.375 21.9645 9.375 23Z" stroke="white" stroke-width="4" stroke-linecap="round" stroke-linejoin="round"/>
</g>
</g>
</svg>
