<svg width="48" height="49" viewBox="0 0 48 49" fill="none" xmlns="http://www.w3.org/2000/svg">
<path d="M23.9979 4.40625C12.9519 4.40625 4.03592 13.3602 3.99792 24.4062C3.95992 35.4362 12.9619 44.4462 23.9979 44.4682C35.0339 44.4902 44.0179 35.3582 43.9979 24.4062C43.9779 13.3602 35.0439 4.40625 23.9979 4.40625ZM23.9979 8.40625C32.8339 8.40625 39.9979 15.5702 39.9979 24.4062C39.9979 28.9062 38.1239 32.9622 35.1339 35.8702C33.6599 32.6842 30.4979 30.4062 26.8719 30.4062C26.1539 30.4062 21.8419 30.4062 21.1219 30.4062C17.5019 30.4062 14.3459 32.6562 12.8719 35.8442C9.88394 32.9362 7.99792 28.9062 7.99792 24.4062C7.99792 15.5702 15.1619 8.40625 23.9979 8.40625ZM23.9979 12.4062C19.5799 12.4062 15.9979 15.9882 15.9979 20.4062C15.9979 24.8242 19.5799 28.4062 23.9979 28.4062C28.4159 28.4062 31.9979 24.8242 31.9979 20.4062C31.9979 15.9882 28.4159 12.4062 23.9979 12.4062ZM23.9979 16.4062C26.2079 16.4062 27.9979 18.1962 27.9979 20.4062C27.9979 22.6162 26.2079 24.4062 23.9979 24.4062C21.7879 24.4062 19.9979 22.6162 19.9979 20.4062C19.9979 18.1962 21.7879 16.4062 23.9979 16.4062ZM21.1219 34.4062C21.8419 34.4062 26.1539 34.4062 26.8719 34.4062C29.1039 34.4062 31.1239 36.0342 31.8319 38.3282C28.9759 40.0142 25.7859 40.4062 23.9979 40.4062C22.1619 40.4062 19.1159 39.9942 16.1879 38.3802C16.8899 36.0662 18.9099 34.4062 21.1219 34.4062Z" fill="white"/>
</svg>
