<svg width="25" height="24" viewBox="0 0 25 24" fill="none" xmlns="http://www.w3.org/2000/svg">
<path id="Vector" d="M1.97241 20.0043V3.99696C1.97241 2.67701 1.97241 2.0163 2.2659 1.62576C2.52205 1.2849 2.91687 1.06111 3.35519 1.0076C3.85723 0.946323 4.47296 1.25712 5.70267 1.87783L21.559 9.88148L21.5647 9.8839C22.9237 10.5699 23.6035 10.913 23.8265 11.3703C24.021 11.7693 24.021 12.2299 23.8265 12.6288C23.6032 13.0868 22.9218 13.4314 21.559 14.1193L5.70267 22.1229C4.47208 22.7441 3.85741 23.0537 3.35519 22.9924C2.91687 22.9389 2.52205 22.7151 2.2659 22.3743C1.97241 21.9837 1.97241 21.3242 1.97241 20.0043Z" stroke="#39DB00" stroke-width="2" stroke-linecap="round" stroke-linejoin="round"/>
</svg>
