<svg xmlns="http://www.w3.org/2000/svg" viewBox="0 0 402.1 254.46"><defs><style>.cls-1{fill:#ed1c24;}.cls-2{fill:#f7931e;}.cls-3{fill:#1a1a1a;}</style></defs><g id="Слой_2" data-name="Слой 2"><g id="Слой_4" data-name="Слой 4"><polygon class="cls-1" points="80.45 57.61 8.63 181.19 44.54 227.49 116.88 232.25 139.35 211.83 159.09 191.4 80.45 57.61"/></g><g id="Слой_3" data-name="Слой 3"><polygon class="cls-2" points="80.37 126.89 23.43 225.27 137.99 226.97 80.37 126.89"/></g><g id="Слой_2-2" data-name="Слой 2"><path class="cls-3" d="M155.61,0H121.32V164a64.91,64.91,0,0,1-.34,9.84c-1.74,21.43-16.57,39-38.82,39s-37.09-17.53-38.83-39A67.62,67.62,0,0,1,43,164V0H0V175.67H0a64.71,64.71,0,0,0,1.45,12.47c7.59,35.89,36.13,66.3,80.7,66.32s72.72-30.52,80.7-66.32a66.86,66.86,0,0,0,1.44-12.47h0V0Z"/></g><g id="Слой_7" data-name="Слой 7"><path class="cls-3" d="M214.27,180.07a6.65,6.65,0,0,1,1.69-4.43l49.58-55.54a43,43,0,0,0,6.69-10.51,25.47,25.47,0,0,0,2.39-10.16v-.17q0-7.59-5-11.78c-3.32-2.79-8.34-3.34-14.45-3.34-5.8,0-10.19.68-13.77,3.73s-5.76,7.37-6.55,13v.08h-20.6v-.08a44.09,44.09,0,0,1,7.18-18.63,35.14,35.14,0,0,1,14-11.77,45.87,45.87,0,0,1,19.82-4.06q12.71,0,21.68,3.88a29.54,29.54,0,0,1,13.68,11.3q4.68,7.41,4.68,17.88v.09a35.77,35.77,0,0,1-3.12,14,58.74,58.74,0,0,1-8.69,14.13l-32.39,39.19a3.51,3.51,0,0,0,2.68,5.76h34.31a3.51,3.51,0,0,1,3.5,3.48l.15,11.16a3.83,3.83,0,0,1-3.81,3.89H216.79a2.53,2.53,0,0,1-2.52-2.54Z"/></g><g id="Слой_9" data-name="Слой 9"><path class="cls-3" d="M399,92.1a35.35,35.35,0,0,0-9.29-13.81A42.66,42.66,0,0,0,374,69.49a72,72,0,0,0-22.4-3.12H313a1.9,1.9,0,0,0-1.9,1.9v121a1.9,1.9,0,0,0,1.9,1.9h15.76a1.9,1.9,0,0,0,1.9-1.9V157.54h-.13V136.1h.13v-47a1.9,1.9,0,0,1,1.9-1.9l19.54.08c10.46,0,11.75-.76,17.52,2.19C376,92.66,379.94,99,379.94,108c0,4.3.39,8.46-.93,12s-1.92,5.7-4.53,8.28a25.67,25.67,0,0,1-9.32,6.19c-3.87,1.43-10.83,1.15-16.49,1.15h0a1.89,1.89,0,0,0-1.78,1.23l-6.22,16.7a1.9,1.9,0,0,0,1.78,2.56h9.18A69.76,69.76,0,0,0,374.09,152c6.27-2.19,10.8-5.63,15.07-9.61a38.79,38.79,0,0,0,9.66-14.12,48,48,0,0,0,3.28-18A51,51,0,0,0,399,92.1Z"/></g></g></svg>